<?xml version="1.0" encoding="utf-8"?>
<!-- Generator: Adobe Illustrator 19.1.0, SVG Export Plug-In . SVG Version: 6.00 Build 0)  -->
<svg version="1.1" id="Layer_1" xmlns="http://www.w3.org/2000/svg" xmlns:xlink="http://www.w3.org/1999/xlink" x="0px" y="0px"
	 viewBox="-220 367.1 169.7 58.9" style="enable-background:new -220 367.1 169.7 58.9;" xml:space="preserve">
<style type="text/css">
	.st0{fill:#010101;stroke:#FFFFFF;stroke-width:1.1758;stroke-miterlimit:10;}
	.st1{fill:#FFFFFF;}
	.st2{fill:none;}
	.st3{fill:url(#SVGID_1_);}
	.st4{fill:url(#SVGID_2_);}
	.st5{fill:url(#SVGID_3_);}
	.st6{fill:url(#SVGID_4_);}
</style>
<g>
	<path class="st0" d="M-50.9,417.1c0,5.1-3.8,8.3-8.9,8.3h-150.4c-5.1,0-9.3-4.2-9.3-9.3V377c0-5.1,4.1-9.3,9.3-9.3h150.4
		c5.1,0,8.9,4.1,8.9,9.3V417.1z"/>
	<path class="st0" d="M-50.9,417.1c0,5.1-3.8,8.3-8.9,8.3h-150.4c-5.1,0-9.3-4.2-9.3-9.3V377c0-5.1,4.1-9.3,9.3-9.3h150.4
		c5.1,0,8.9,4.1,8.9,9.3V417.1z"/>
	<g>
		<g>
			<path class="st1" d="M-104.3,409.1l-1.3,1.2c-0.3,0.2-0.6,0.3-0.9,0.5c-0.9,0.4-1.8,0.5-2.6,0.5c-0.8,0-2.2-0.1-3.5-1
				c-1.9-1.3-2.7-3.6-2.7-5.6c0-4.1,3.3-6.1,6.1-6.1c1,0,1.9,0.2,2.7,0.7c1.3,0.9,1.7,2,1.9,2.6l-6.2,2.5l-2,0.2
				c0.7,3.4,2.9,5.3,5.4,5.3C-106.1,409.9-105.2,409.5-104.3,409.1C-104.3,409.1-104.1,409-104.3,409.1z M-108,402.4
				c0.5-0.2,0.8-0.3,0.8-0.7c0-1.1-1.2-2.3-2.6-2.3c-1.1,0-3,0.8-3,3.7c0,0.4,0.1,0.9,0.1,1.4L-108,402.4z"/>
			<path class="st1" d="M-117.3,408.9c0,1,0.2,1.2,1.1,1.3c0.5,0.1,0.9,0.1,1.4,0.1l-1,0.6h-4.7c0.6-0.8,0.7-0.9,0.7-1.4v-0.6
				l0-15.7h-2.1l2-1h3.8c-0.8,0.5-1.1,0.8-1.2,1.7L-117.3,408.9z"/>
			<path class="st1" d="M-124.5,399.9c0.6,0.5,1.9,1.6,1.9,3.6c0,2-1.1,2.9-2.2,3.8c-0.3,0.3-0.7,0.7-0.7,1.3c0,0.6,0.4,0.9,0.7,1.1
				l1,0.7c1.2,1,2.2,1.9,2.2,3.7c0,2.5-2.4,5-7,5c-3.8,0-5.7-1.8-5.7-3.8c0-1,0.5-2.3,2-3.2c1.6-1,3.9-1.1,5.1-1.2
				c-0.4-0.5-0.8-1-0.8-1.8c0-0.4,0.1-0.7,0.3-1c-0.3,0-0.6,0.1-0.8,0.1c-2.8,0-4.4-2.1-4.4-4.2c0-1.2,0.6-2.6,1.7-3.5
				c1.5-1.2,3.3-1.5,4.7-1.5h5.5l-1.7,1L-124.5,399.9L-124.5,399.9z M-126.4,411.6c-0.2,0-0.3,0-0.6,0c-0.2,0-1.7,0.1-2.8,0.4
				c-0.6,0.2-2.3,0.8-2.3,2.7c0,1.9,1.8,3.2,4.7,3.2c2.5,0,3.9-1.2,3.9-2.9C-123.5,413.8-124.4,413.1-126.4,411.6z M-125.6,406.6
				c0.6-0.6,0.7-1.5,0.7-1.9c0-1.9-1.1-4.9-3.3-4.9c-0.7,0-1.4,0.3-1.9,0.9c-0.4,0.6-0.6,1.3-0.6,2c0,1.8,1,4.7,3.3,4.7
				C-126.7,407.3-126,407-125.6,406.6z"/>
			<path class="st1" d="M-140.9,411.2c-4.2,0-6.5-3.3-6.5-6.2c0-3.5,2.8-6.4,6.9-6.4c3.9,0,6.3,3,6.3,6.2
				C-134.2,407.9-136.6,411.2-140.9,411.2z M-137.6,409.1c0.6-0.8,0.8-1.9,0.8-2.9c0-2.3-1.1-6.8-4.4-6.8c-0.9,0-1.8,0.3-2.4,0.9
				c-1,0.9-1.2,2.1-1.2,3.2c0,2.6,1.3,6.9,4.5,6.9C-139.2,410.5-138.2,410-137.6,409.1z"/>
			<path class="st1" d="M-155,411.2c-4.2,0-6.5-3.3-6.5-6.2c0-3.5,2.8-6.4,6.9-6.4c3.9,0,6.3,3,6.3,6.2
				C-148.3,407.9-150.7,411.2-155,411.2z M-151.7,409.1c0.6-0.8,0.8-1.9,0.8-2.9c0-2.3-1.1-6.8-4.4-6.8c-0.9,0-1.7,0.3-2.4,0.9
				c-1,0.9-1.2,2.1-1.2,3.2c0,2.6,1.3,6.9,4.5,6.9C-153.3,410.5-152.3,410-151.7,409.1z"/>
			<path class="st1" d="M-163.1,410.3l-3.5,0.8c-1.4,0.2-2.7,0.4-4.1,0.4c-6.8,0-9.4-5-9.4-9c0-4.8,3.7-9.3,10-9.3
				c1.3,0,2.6,0.2,3.8,0.5c1.9,0.5,2.7,1.2,3.3,1.5l-2.1,2l-0.9,0.2l0.6-1c-0.8-0.8-2.4-2.3-5.3-2.3c-3.9,0-6.9,3-6.9,7.3
				c0,4.7,3.4,9,8.8,9c1.6,0,2.4-0.3,3.1-0.6v-4l-3.7,0.2l2-1.1h5.3l-0.6,0.6c-0.2,0.1-0.2,0.2-0.2,0.4c0,0.2,0,0.9,0,1.2
				L-163.1,410.3L-163.1,410.3L-163.1,410.3z"/>
		</g>
		<g>
			<path class="st1" d="M-96.6,409.2v6.7H-98v-17.1h1.3v2c0.9-1.3,2.5-2.3,4.3-2.3c3.3,0,5.6,2.5,5.6,6.5c0,4-2.2,6.5-5.6,6.5
				C-94.1,411.6-95.6,410.7-96.6,409.2z M-88.2,405c0-3-1.6-5.3-4.3-5.3c-1.7,0-3.4,1.4-4.1,2.5v5.5c0.7,1.2,2.4,2.6,4.1,2.6
				C-89.8,410.3-88.2,408-88.2,405z"/>
			<path class="st1" d="M-84.9,411.2v-17.1h1.3v17.1H-84.9z"/>
			<path class="st1" d="M-68.6,414.9c0.3,0.1,0.8,0.2,1.1,0.2c0.8,0,1.4-0.3,1.9-1.5l1-2.2l-5.3-12.5h1.5l4.5,10.8l4.5-10.8h1.5
				l-6.4,15.1c-0.7,1.6-1.7,2.3-3.2,2.3c-0.4,0-1-0.1-1.3-0.2L-68.6,414.9z"/>
			<path class="st1" d="M-72.5,411.2c-0.1-0.4-0.2-0.8-0.2-1.1c0-0.3-0.1-0.6-0.1-1c-0.5,0.7-1.1,1.2-1.9,1.7
				c-0.8,0.4-1.6,0.7-2.7,0.7c-1.3,0-2.3-0.3-3-1c-0.7-0.6-1.1-1.5-1.1-2.6c0-1.1,0.5-2,1.6-2.7c1-0.7,2.4-1,4.1-1h3.1v-1.5
				c0-0.9-0.3-1.6-0.9-2.1c-0.6-0.5-1.5-0.8-2.6-0.8c-1,0-1.8,0.2-2.5,0.7c-0.6,0.5-0.9,1-0.9,1.7H-81l0-0.1c0-0.9,0.4-1.8,1.3-2.5
				c0.9-0.7,2.1-1.1,3.6-1.1c1.5,0,2.6,0.4,3.5,1.1c0.9,0.7,1.3,1.7,1.3,3v6.1c0,0.4,0,0.9,0.1,1.3c0.1,0.4,0.1,0.8,0.3,1.2
				L-72.5,411.2L-72.5,411.2z M-77.2,410.2c1.1,0,2-0.3,2.8-0.8c0.8-0.5,1.4-1.1,1.7-1.9v-2.4h-3.1c-1.2,0-2.2,0.3-3,0.8
				c-0.8,0.5-1.2,1.2-1.2,1.9c0,0.7,0.3,1.3,0.8,1.7C-78.8,410-78.1,410.2-77.2,410.2z"/>
		</g>
	</g>
	<g>
		<g>
			<path class="st1" d="M-180.1,380c0-2.6,2-4.3,4.4-4.3c1.6,0,2.7,0.8,3.4,1.7l-1.2,0.7c-0.5-0.6-1.2-1.1-2.2-1.1
				c-1.7,0-2.9,1.3-2.9,3c0,1.7,1.2,3,2.9,3c0.9,0,1.6-0.4,2-0.8V381h-2.5v-1.3h4v3.1c-0.8,0.9-2,1.5-3.4,1.5
				C-178.2,384.4-180.1,382.7-180.1,380z"/>
			<path class="st1" d="M-170.5,384.2v-8.4h5.7v1.3h-4.3v2.2h4.2v1.3h-4.2v2.3h4.3v1.3L-170.5,384.2L-170.5,384.2z"/>
			<path class="st1" d="M-160.7,384.2v-7.1h-2.5v-1.3h6.5v1.3h-2.5v7.1H-160.7z"/>
			<path class="st1" d="M-151.6,384.2v-8.4h1.5v8.4H-151.6z"/>
			<path class="st1" d="M-146,384.2v-7.1h-2.5v-1.3h6.5v1.3h-2.5v7.1H-146z"/>
			<path class="st1" d="M-137.3,380c0-2.5,1.8-4.3,4.3-4.3c2.5,0,4.3,1.8,4.3,4.3s-1.8,4.3-4.3,4.3
				C-135.5,384.4-137.3,382.5-137.3,380z M-130.2,380c0-1.7-1.1-3-2.8-3c-1.7,0-2.8,1.3-2.8,3c0,1.7,1.1,3,2.8,3
				C-131.3,383.1-130.2,381.8-130.2,380z"/>
			<path class="st1" d="M-121.2,384.2l-4.4-6v6h-1.5v-8.4h1.5l4.3,5.8v-5.8h1.5v8.4H-121.2z"/>
		</g>
	</g>
	<g>
		<polygon class="st2" points="-197.7,404.3 -193.4,400 -193.4,400 -197.7,404.3 -211.4,390.6 -211.4,390.6 -197.7,404.3 
			-211.4,418.1 -211.4,418.1 -197.7,404.3 -193.3,408.6 -193.3,408.6 		"/>
		
			<linearGradient id="SVGID_1_" gradientUnits="userSpaceOnUse" x1="284.7058" y1="-93.4253" x2="266.6178" y2="-104.7455" gradientTransform="matrix(0.7071 0.7071 -0.7071 0.7071 -467.9246 267.9718)">
			<stop  offset="0" style="stop-color:#D7E69D"/>
			<stop  offset="0.4456" style="stop-color:#94C4AA"/>
			<stop  offset="1" style="stop-color:#01A4B6"/>
		</linearGradient>
		<path class="st3" d="M-193.4,400l-16.7-9.2c-0.5-0.3-0.9-0.3-1.3-0.2l13.7,13.7L-193.4,400z"/>
		
			<linearGradient id="SVGID_2_" gradientUnits="userSpaceOnUse" x1="274.1909" y1="-103.0954" x2="297.6416" y2="-96.965" gradientTransform="matrix(0.7071 0.7071 -0.7071 0.7071 -467.9246 267.9718)">
			<stop  offset="0" style="stop-color:#ED277B"/>
			<stop  offset="1.920000e-02" style="stop-color:#EE2F7C"/>
			<stop  offset="0.7039" style="stop-color:#F7BD81"/>
			<stop  offset="1" style="stop-color:#FEEB74"/>
		</linearGradient>
		<path class="st4" d="M-193.3,408.6l5.7-3.1c1.2-0.6,1.2-1.7,0-2.3l-5.7-3.1l-4.3,4.3L-193.3,408.6z"/>
		
			<linearGradient id="SVGID_3_" gradientUnits="userSpaceOnUse" x1="287.2809" y1="-84.839" x2="261.8499" y2="-99.8011" gradientTransform="matrix(0.7071 0.7071 -0.7071 0.7071 -467.9246 267.9718)">
			<stop  offset="0" style="stop-color:#89CFBD"/>
			<stop  offset="9.070000e-02" style="stop-color:#7DBEBB"/>
			<stop  offset="0.5396" style="stop-color:#457CAC"/>
			<stop  offset="0.8523" style="stop-color:#1C5AA2"/>
			<stop  offset="1" style="stop-color:#084D9F"/>
		</linearGradient>
		<path class="st5" d="M-211.4,390.6c-0.5,0.2-0.8,0.7-0.8,1.5l0,24.5c0,0.8,0.3,1.3,0.8,1.4l13.7-13.7L-211.4,390.6z"/>
		
			<linearGradient id="SVGID_4_" gradientUnits="userSpaceOnUse" x1="296.515" y1="-96.7204" x2="280.8549" y2="-76.089" gradientTransform="matrix(0.7071 0.7071 -0.7071 0.7071 -467.9246 267.9718)">
			<stop  offset="0" style="stop-color:#F04A2B"/>
			<stop  offset="0.4704" style="stop-color:#B54F6B"/>
			<stop  offset="0.8353" style="stop-color:#8B5191"/>
			<stop  offset="1" style="stop-color:#7851A1"/>
		</linearGradient>
		<path class="st6" d="M-211.4,418.1c0.4,0.1,0.8,0.1,1.3-0.2l16.7-9.2l-4.3-4.3L-211.4,418.1z"/>
	</g>
</g>
</svg>
